{
  "accessors": [
    {
      "bufferView": 2,
      "componentType": 5126,
      "count": 8,
      "max": [
        2.4523959159851074,
        0.0,
        5.0
      ],
      "min": [
        -2.550379991531372,
        0.0,
        -2.392462968826294
      ],
      "type": "VEC3"
    },
    {
      "bufferView": 2,
      "byteOffset": 96,
      "componentType": 5126,
      "count": 8,
      "max": [
        -0.0,
        1.0,
        -0.0
      ],
      "min": [
        -0.0,
        -1.0,
        -0.0
      ],
      "type": "VEC3"
    },
    {
      "bufferView": 1,
      "componentType": 5126,
      "count": 8,
      "max": [
        1.0,
        1.0
      ],
      "min": [
        0.0,
        0.2607539892196655
      ],
      "type": "VEC2"
    },
    {
      "bufferView": 0,
      "componentType": 5125,
      "count": 12,
      "type": "SCALAR"
    }
  ],
  "asset": {
    "extras": {
      "author": "Thomas Flynn (https://sketchfab.com/nebulousflynn)",
      "license": "CC-BY-NC-SA-4.0 (http://creativecommons.org/licenses/by-nc-sa/4.0/)",
      "source": "https://sketchfab.com/3d-models/gezinkte-spielkarte-km-o811-986967509d8d4774b87c6f4acc53a5ab",
      "title": "gezinkte Spielkarte KM-O.811"
    },
    "generator": "Sketchfab-12.65.0",
    "version": "2.0"
  },
  "bufferViews": [
    {
      "buffer": 0,
      "byteLength": 48,
      "name": "floatBufferViews",
      "target": 34963
    },
    {
      "buffer": 0,
      "byteLength": 64,
      "byteOffset": 48,
      "byteStride": 8,
      "name": "floatBufferViews",
      "target": 34962
    },
    {
      "buffer": 0,
      "byteLength": 192,
      "byteOffset": 112,
      "byteStride": 12,
      "name": "floatBufferViews",
      "target": 34962
    }
  ],
  "buffers": [
    {
      "byteLength": 304,
      "uri": "scene.bin"
    }
  ],
  "images": [
    {
      "uri": "textures/card-colour_baseColor.png"
    },
    {
      "uri": "textures/card-colour_metallicRoughness.png"
    }
  ],
  "materials": [
    {
      "alphaCutoff": 0.8743939486416903,
      "alphaMode": "MASK",
      "name": "card-colour",
      "pbrMetallicRoughness": {
        "baseColorTexture": {
          "index": 0
        },
        "metallicFactor": 0.0,
        "metallicRoughnessTexture": {
          "index": 1
        }
      }
    }
  ],
  "meshes": [
    {
      "name": "Object_0",
      "primitives": [
        {
          "attributes": {
            "NORMAL": 1,
            "POSITION": 0,
            "TEXCOORD_0": 2
          },
          "indices": 3,
          "material": 0,
          "mode": 4
        }
      ]
    }
  ],
  "nodes": [
    {
      "children": [
        1
      ],
      "matrix": [
        0.8624191880226135,
        0.5061947703361511,
        1.1239781779440763e-16,
        0.0,
        0.0,
        2.220446049250313e-16,
        -1.0,
        0.0,
        -0.5061947703361511,
        0.8624191880226135,
        1.9149552788424751e-16,
        0.0,
        0.6532225608825684,
        0.20417484641075134,
        4.533592310690423e-17,
        1.0
      ],
      "name": "Sketchfab_model"
    },
    {
      "children": [
        2
      ],
      "name": "playing-card.obj.cleaner.materialmerger.gles"
    },
    {
      "mesh": 0,
      "name": "Object_2"
    }
  ],
  "samplers": [
    {
      "magFilter": 9729,
      "minFilter": 9987,
      "wrapS": 10497,
      "wrapT": 10497
    }
  ],
  "scene": 0,
  "scenes": [
    {
      "name": "Sketchfab_Scene",
      "nodes": [
        0
      ]
    }
  ],
  "textures": [
    {
      "sampler": 0,
      "source": 0
    },
    {
      "sampler": 0,
      "source": 1
    }
  ]
}
